<svg width="48" height="48" viewBox="0 0 48 48" fill="none" xmlns="http://www.w3.org/2000/svg">
<g clip-path="url(#clip0_6466_25918)">
<path d="M26.2484 19.8413H22.0397V25.8539H26.2484V19.8413Z" fill="#FF7E97"/>
<path d="M14.524 0C14.1232 0 13.7223 0 13.3215 0.100209H15.8267C15.3257 0 14.9248 0 14.524 0Z" fill="#566066"/>
<path d="M28.453 17.737C31.9603 16.8351 38.2735 15.6326 39.8768 14.0292C41.38 12.5261 42.2818 10.4217 42.2818 8.21712C42.2818 6.01253 41.38 4.00835 39.8768 2.40501C38.6743 1.20251 37.071 0.400835 35.2672 0.100209C34.8664 0 34.4656 0 34.0647 0C33.6639 0 33.263 0 32.8622 0.100209C31.1587 0.400835 29.5553 1.1023 28.2526 2.40501C26.4489 4.20877 25.1461 8.81837 24.2443 12.6263C23.3424 8.81837 22.0397 4.20877 20.2359 2.40501C19.0334 1.20251 17.4301 0.400835 15.6263 0.100209H13.1211C11.4175 0.400835 9.8142 1.1023 8.51148 2.40501C7.20877 3.90814 6.30689 6.01253 6.30689 8.21712C6.30689 10.4217 7.20877 12.4259 8.7119 14.0292C10.3152 15.6326 16.0271 16.9353 19.6347 17.737H3V27.9582H5.80585V48H42.4823V27.9582H45.2881V17.737H28.453ZM19.9353 45.8956H7.91023V27.9582H19.9353V45.8956ZM19.9353 25.8539H5.10438V19.8413H19.9353V25.8539ZM10.215 12.5261C9.01253 11.3236 8.41127 9.82046 8.41127 8.21712C8.41127 6.61378 9.01253 5.01044 10.215 3.90814C11.3173 2.80585 12.9207 2.10438 14.524 2.10438C16.1273 2.10438 17.6305 2.70564 18.833 3.90814C20.2359 5.31106 21.5386 9.92067 22.3403 13.6284C21.9395 13.0271 21.4384 12.5261 20.9374 11.9248C16.7286 6.9144 15.0251 6.41336 13.9228 6.51357C13.5219 6.61378 12.7203 6.9144 12.4196 8.0167C12.2192 8.51774 12.5198 9.119 13.0209 9.31942C13.5219 9.51983 14.1232 9.21921 14.3236 8.71816C15.4259 9.01879 18.6326 12.3257 21.739 16.4342C14.1232 14.9311 10.8163 13.1273 10.215 12.5261ZM26.2484 45.8956H22.0397V27.9582H26.2484V45.8956ZM26.2484 25.8539H22.0397V19.8413H26.2484V25.8539ZM36.1691 8.0167C35.8685 6.9144 35.0668 6.61378 34.666 6.61378C33.5637 6.41336 31.8601 6.9144 27.6514 12.0251C27.1503 12.6263 26.6493 13.2276 26.2484 13.8288C27.6514 7.41545 29.2547 4.6096 29.8559 4.00835C30.9582 2.90605 32.5616 2.20459 34.1649 2.20459C35.7683 2.20459 37.2714 2.80585 38.4739 4.00835C39.476 5.01044 40.0772 6.61378 40.0772 8.21712C40.0772 9.82046 39.476 11.3236 38.2735 12.5261C36.5699 14.2296 30.6576 15.6326 26.6493 16.4342C29.7557 12.3257 32.9624 9.01879 34.0647 8.71816C34.2651 9.21921 34.8664 9.51983 35.3674 9.31942C36.0689 9.119 36.3695 8.51774 36.1691 8.0167ZM40.3779 45.8956H28.3528V27.9582H40.3779V45.8956ZM43.1837 25.8539H28.3528V19.8413H43.1837V25.8539Z" fill="#566066"/>
<path d="M23.2422 16.6346V18.4384C23.2422 18.739 23.4426 18.9395 23.7432 18.9395H24.7453C25.0459 18.9395 25.2464 18.739 25.2464 18.4384V16.6346C25.2464 16.334 25.0459 16.1336 24.7453 16.1336H23.7432C23.4426 16.1336 23.2422 16.334 23.2422 16.6346Z" fill="#FF7E97"/>
<path d="M34.666 6.61378C35.0669 6.61378 35.8685 6.91441 36.1692 8.0167C36.3696 8.61796 36.0689 9.119 35.4677 9.31942C34.9667 9.51983 34.3654 9.21921 34.165 8.71816C33.0627 9.01879 29.856 12.3257 26.7495 16.4342C30.7579 15.6326 36.6702 14.1294 38.3737 12.5261C39.476 11.4238 40.1775 9.82046 40.1775 8.21712C40.1775 6.61378 39.5763 5.11065 38.3737 3.90814C37.2715 2.80585 35.6681 2.10439 34.0648 2.10439C32.4614 2.10439 30.9583 2.70564 29.7558 3.90814C29.1545 4.5094 27.5512 7.31524 26.1483 13.7286C26.6493 13.1274 27.0502 12.5261 27.5512 11.9248C31.8602 6.91441 33.5637 6.41336 34.666 6.61378Z" fill="#FF7E97"/>
<path d="M25.8476 16.9353L26.4489 16.1336C29.1545 12.6263 32.6618 8.61795 34.0647 8.21712L34.3654 8.11691L34.4656 8.41753C34.666 8.91858 35.0668 9.119 35.3675 9.01879C35.5679 8.91858 35.6681 8.81837 35.7683 8.71816C35.8685 8.61795 35.8685 8.41754 35.7683 8.21712C35.4677 7.31524 34.9666 7.11482 34.5658 7.01461C33.6639 6.9144 32.0606 7.31524 27.8518 12.2255C27.3508 12.8267 26.8497 13.428 26.4489 14.0292L25.4468 15.3319L25.7474 13.7286C27.1503 7.31524 28.7537 4.40918 29.4551 3.70772C30.6576 2.50522 32.261 1.80376 34.0647 1.80376C35.7683 1.80376 37.3716 2.50522 38.6743 3.70772C39.8769 4.91023 40.5783 6.51357 40.5783 8.31733C40.5783 10.0209 39.8769 11.6242 38.6743 12.9269C36.7704 14.8309 29.7558 16.334 26.8497 16.9353H25.8476ZM33.9645 9.119C32.9625 9.72025 30.4572 12.1253 27.6514 15.833C33.0627 14.7307 36.9708 13.3278 38.0731 12.2255C39.1754 11.1232 39.7766 9.72025 39.7766 8.21712C39.7766 6.71399 39.1754 5.31106 38.0731 4.20877C36.9708 3.10647 35.5679 2.50522 34.0647 2.50522C32.5616 2.50522 31.1587 3.10647 30.0564 4.20877C29.6556 4.6096 28.2526 6.9144 26.9499 12.2255C27.0501 12.0251 27.2506 11.9248 27.3508 11.7244C31.7599 6.51357 33.4635 6.01252 34.666 6.21294C35.0668 6.21294 36.0689 6.51357 36.57 7.91649C36.6702 8.31733 36.6702 8.71816 36.4698 9.01879C36.2693 9.31941 35.9687 9.62004 35.6681 9.72025C34.9666 9.92067 34.3654 9.62004 33.9645 9.119Z" fill="#FF7E97"/>
<path d="M10.2151 12.5261C10.8163 13.1273 14.1232 15.0313 21.8393 16.4342C18.7328 12.3257 15.5261 9.01879 14.4238 8.71816C14.2234 9.2192 13.6222 9.51983 13.1211 9.31941C12.5199 9.119 12.2192 8.51774 12.4197 8.0167C12.7203 6.9144 13.5219 6.61378 13.9228 6.61378C15.0251 6.41336 16.7286 6.9144 20.9374 12.025C21.4384 12.6263 21.9395 13.2276 22.3403 13.7286C21.5386 9.92067 20.2359 5.41127 18.833 4.00835C17.7307 2.90605 16.1274 2.20459 14.524 2.20459C12.9207 2.20459 11.4176 2.80584 10.2151 4.00835C9.01255 5.01044 8.4113 6.61378 8.4113 8.21712C8.4113 9.82046 9.01255 11.3236 10.2151 12.5261Z" fill="#FF7E97"/>
<path d="M22.7411 17.0355L21.739 16.8351C14.1232 15.4322 10.7161 13.5282 9.9144 12.8267C8.7119 11.524 8.01044 9.92067 8.01044 8.21712C8.01044 6.51357 8.7119 4.91023 9.9144 3.60752C11.1169 2.40501 12.7202 1.70355 14.524 1.70355C16.2276 1.70355 17.8309 2.40501 19.1336 3.60752C20.6367 5.11065 21.9395 9.82046 22.7411 13.5282L23.142 15.1315L22.1399 13.8288C21.739 13.2276 21.238 12.7265 20.737 12.1253C16.6284 7.21503 15.0251 6.71399 14.023 6.91441C13.5219 7.01462 13.0209 7.21504 12.7202 8.11691C12.62 8.31733 12.7202 8.51775 12.7202 8.61796C12.8205 8.81838 13.0209 8.91858 13.2213 9.01879C13.5219 9.119 13.9228 8.91858 14.023 8.61796L14.1232 8.31733L14.4238 8.41754C15.8267 8.81837 19.4342 12.7265 22.0397 16.334L22.7411 17.0355ZM14.524 2.50522C13.0209 2.50522 11.618 3.10647 10.5157 4.20877C9.41336 5.31107 8.81211 6.71399 8.81211 8.21712C8.81211 9.72025 9.41336 11.1232 10.5157 12.2255C11.0167 12.7265 14.023 14.4301 20.9374 15.833C18.0313 12.1253 15.6263 9.72025 14.524 9.119C14.1232 9.62005 13.5219 9.82046 12.9207 9.62005C12.62 9.62005 12.3194 9.31942 12.119 9.01879C11.9186 8.71817 11.9186 8.21712 12.0188 7.9165C12.4196 6.61378 13.4217 6.31316 13.8225 6.21295C15.0251 6.01253 16.8288 6.51357 21.1378 11.7244C21.238 11.9248 21.4384 12.0251 21.5386 12.2255C20.5365 8.01671 19.4342 5.21086 18.4321 4.20877C17.4301 3.10647 16.0271 2.50522 14.524 2.50522Z" fill="#FF7E97"/>
<path d="M43.4844 19.6409H28.3529V25.8538H43.4844V19.6409Z" fill="#FFEB8B"/>
<path d="M43.8852 26.2547H27.952V19.2401H43.785V26.2547H43.8852ZM28.7537 25.453H43.0835V20.0418H28.7537V25.453Z" fill="#FFEB8B"/>
<path d="M19.9353 19.6409H4.8038V25.8538H19.9353V19.6409Z" fill="#FFEB8B"/>
<path d="M20.2359 26.2547H4.40295V19.2401H20.2359V26.2547ZM5.20462 25.453H19.5345V20.0418H5.20462V25.453Z" fill="#FFEB8B"/>
<path d="M40.3779 27.9582H28.3528V46.096H40.3779V27.9582Z" fill="#7BD8D3"/>
<path d="M40.8789 46.5971H27.8518V27.4572H40.8789V46.5971ZM28.8538 45.595H39.8768V28.4593H28.8538V45.595Z" fill="#7BD8D3"/>
<path d="M19.9353 27.9582H7.91029V46.096H19.9353V27.9582Z" fill="#7BD8D3"/>
<path d="M20.4364 46.5971H7.40921V27.4572H20.4364V46.5971ZM8.4113 45.595H19.4343V28.4593H8.4113V45.595Z" fill="#7BD8D3"/>
<path d="M26.2484 27.1566H22.0397V46.6973H26.2484V27.1566Z" fill="#FF7E97"/>
<path d="M19.9353 19.8413H5.10443V25.8539H19.9353V19.8413Z" fill="#FFEB8B"/>
<path d="M20.2359 26.2547H4.70356V19.5407H20.2359V26.2547ZM5.50523 25.453H19.5345V20.2422H5.50523V25.453Z" fill="#FFEB8B"/>
</g>
<defs>
<clipPath id="clip0_6466_25918">
<rect width="48" height="48" fill="white"/>
</clipPath>
</defs>
</svg>
