<svg width="60" height="60" viewBox="0 0 60 60" fill="none" xmlns="http://www.w3.org/2000/svg">
<path d="M40.7506 49.5128C40.7506 49.5128 31.081 50.624 27.6255 44.9176C27.6255 44.9176 18.3739 46.6596 9.56806 41.4637C0.762253 36.2679 1.26385 24.7649 6.86501 19.6291C14.584 12.5711 29.1303 11.0094 41.4752 12.0005C57.4984 13.292 59.9506 24.6448 56.7739 32.6638C53.5971 40.7129 36.4035 44.0767 36.4035 44.0767C36.4035 44.0767 35.4003 47.7708 40.7506 49.5128Z" fill="#FF7E97"/>
<path d="M40.1655 47.6208H40.164C39.1829 47.2617 38.0727 46.6972 37.2568 45.9061C36.4414 45.1155 35.9265 44.107 36.1128 42.8451L36.1983 42.8267L36.4073 42.7816L36.4099 42.781C36.7307 42.7058 37.0446 42.6307 37.358 42.5556L37.3594 42.5553C37.6725 42.4803 37.9852 42.4054 38.3048 42.3305L38.3048 42.3306L38.3078 42.3298C42.7741 41.1865 47.3062 39.5897 51.2826 36.9941L51.2826 36.9941C53.1325 35.7857 54.8813 34.2684 56.04 32.2581L56.0404 32.2575C57.0311 30.5185 57.4797 28.3315 57.6756 26.3413L57.6756 26.3406C58.0978 21.851 56.4655 17.5083 53.2232 14.6215C48.3546 10.2542 41.4412 9.95822 35.4866 9.86824C28.2302 9.71788 20.7406 10.4695 13.8608 13.1522L13.8607 13.1522C8.77286 15.1407 3.868 18.41 2.31706 24.3663C0.852411 29.8918 2.9369 35.6575 7.10413 39.0867L7.10455 39.087C10.7032 42.0263 15.5291 43.3531 19.917 43.8652L19.9172 43.8652C22.218 44.1309 24.6313 44.1661 26.9193 43.7699C26.9421 43.8151 26.9727 43.8655 27.0062 43.9169C27.0996 44.0601 27.2388 44.2455 27.3821 44.4282C27.6686 44.7934 27.9851 45.1652 28.0172 45.1998L28.0171 45.1999L28.0227 45.2054C28.5906 45.7563 29.2424 46.2143 29.9208 46.5801C31.3359 47.4032 32.9435 47.8273 34.4825 48.0987C36.3301 48.4305 38.2629 48.5219 40.1141 48.3117C40.2021 48.3375 40.29 48.3245 40.3618 48.2744C40.4358 48.2229 40.4766 48.1436 40.493 48.0699C40.5136 47.9777 40.5003 47.8523 40.4263 47.7609C40.4207 47.752 40.4145 47.7432 40.4078 47.7347C40.3515 47.6632 40.2657 47.6208 40.1655 47.6208ZM36.7147 46.2618C37.3056 46.8609 38.0337 47.3508 38.7594 47.7277C36.9221 47.8081 34.9307 47.6597 33.0752 47.1457C30.7406 46.499 28.6322 45.2771 27.3066 43.2157C27.2659 43.1503 27.214 43.1011 27.1433 43.0757C27.0866 43.0553 27.0277 43.0555 26.9918 43.0556C26.9893 43.0556 26.9869 43.0556 26.9846 43.0556H26.9711L26.9579 43.058C21.3674 44.0722 15.159 42.7899 10.1111 40.1593L10.1109 40.1592C4.20946 37.0979 1.0954 30.384 3.2461 23.5787L3.24632 23.578C4.2915 20.2134 6.63048 17.7988 9.44933 16.0281C12.2695 14.2566 15.5619 13.135 18.496 12.3557L18.4962 12.3556C25.8863 10.3794 33.7537 10.1686 41.3502 10.8584L41.3507 10.8584C46.8221 11.3374 52.8034 13.3997 55.6379 18.7978L55.6381 18.7982C57.6466 22.5937 57.4302 27.5897 55.6898 31.4606C54.6758 33.6904 52.7945 35.3825 50.6408 36.7185C48.4875 38.0542 46.0752 39.026 44.0133 39.8218C41.3483 40.8391 38.5459 41.6766 35.7725 42.2154C35.7 42.221 35.6415 42.2597 35.6039 42.3002C35.5667 42.3402 35.5359 42.3968 35.53 42.4622C35.1444 44.0084 35.7527 45.2864 36.7147 46.2618Z" fill="#566066" stroke="#566066" stroke-width="0.3"/>
<path d="M47.8845 42.755C47.8845 42.755 48.0795 42.6649 48.4139 42.4847C48.7483 42.3045 49.2221 42.0642 49.7794 41.7639C50.058 41.6137 50.3646 41.4335 50.6711 41.2533C50.9776 41.0731 51.312 40.8629 51.6464 40.6526C51.9808 40.4424 52.3152 40.2021 52.6496 39.9619C52.984 39.7216 53.3184 39.4813 53.6528 39.211C53.9872 38.9407 54.2938 38.6704 54.6003 38.4001C54.9068 38.1298 55.2133 37.8294 55.4641 37.5591C55.7428 37.2588 55.9936 36.9885 56.2165 36.6882C56.328 36.538 56.4395 36.3878 56.5509 36.2677C56.6624 36.1475 56.746 35.9974 56.8575 35.8472C57.0525 35.5769 57.1919 35.3366 57.3591 35.0964C57.4984 34.8561 57.6099 34.6459 57.7213 34.4957C57.8885 34.1653 58 33.9551 58 33.9551C58 33.9551 57.9721 34.1653 57.8607 34.5558C57.8049 34.736 57.7492 34.9762 57.6377 35.2465C57.5263 35.5168 57.4427 35.8172 57.2755 36.1175C57.1361 36.4179 56.9411 36.7482 56.746 37.0786C56.5509 37.409 56.3001 37.7393 56.0215 38.0697C55.7428 38.4001 55.4641 38.7305 55.1576 39.0308C54.8511 39.3612 54.5167 39.6315 54.1544 39.9318C53.7922 40.2021 53.4578 40.4724 53.0955 40.7127C52.7332 40.953 52.371 41.1632 52.0087 41.3434C51.6464 41.5536 51.2842 41.7038 50.9498 41.854C50.6154 42.0042 50.281 42.1243 49.9744 42.2144C49.3614 42.4246 48.8319 42.5448 48.4697 42.6349C48.0795 42.725 47.8845 42.755 47.8845 42.755Z" fill="#7BD8D3"/>
<path d="M11.1007 12.1808C11.1007 12.1808 10.9614 12.2409 10.7663 12.3611C10.5434 12.4512 10.2369 12.6314 9.87459 12.8116C9.51232 12.9918 9.09433 13.232 8.64846 13.4723C8.42553 13.5924 8.2026 13.7426 7.97967 13.8627C7.75674 14.0129 7.5338 14.133 7.31087 14.3133C7.08794 14.4634 6.86501 14.6136 6.66994 14.7938C6.55848 14.8839 6.47488 14.944 6.36341 15.0341C6.25195 15.1242 6.16835 15.2143 6.08475 15.2743C6.00115 15.3644 5.88968 15.4545 5.80608 15.5146C5.72248 15.6047 5.63888 15.6948 5.55528 15.7849C5.38809 15.9651 5.22089 16.1153 5.10942 16.2655C4.97009 16.4156 4.85862 16.5658 4.74716 16.6859C4.66356 16.8361 4.55209 16.9562 4.46849 17.0463C4.32916 17.2566 4.21769 17.3467 4.21769 17.3467C4.21769 17.3467 4.24556 17.1965 4.32916 16.9562C4.35703 16.8361 4.41276 16.6859 4.46849 16.5057C4.55209 16.3255 4.63569 16.1453 4.71929 15.9351C4.80289 15.7248 4.94222 15.5146 5.08155 15.3044C5.16515 15.1842 5.22089 15.0941 5.30449 14.974C5.38809 14.8839 5.47168 14.7638 5.58315 14.6737C5.75035 14.4634 5.97328 14.2532 6.16835 14.073C6.36341 13.8627 6.61421 13.7126 6.83714 13.5324C7.06007 13.3522 7.31087 13.232 7.56167 13.0819C7.81247 12.9617 8.06327 12.8416 8.31407 12.7215C8.56486 12.6314 8.7878 12.5413 9.03859 12.4812C9.26153 12.4211 9.48446 12.3611 9.70739 12.331C10.1254 12.2409 10.4598 12.2109 10.7106 12.2109C10.9614 12.1508 11.1007 12.1808 11.1007 12.1808Z" fill="#7BD8D3"/>
<path d="M12.4647 27.5462L12.2259 24.8168L11.1739 27.2008L10.719 27.2406L9.27896 25.1892L9.5078 27.8049L8.598 27.8845L8.20001 23.3355L8.99609 23.2658L10.837 25.9697L12.1804 22.9873L12.9765 22.9176L13.3745 27.4666L12.4647 27.5462Z" fill="white"/>
<path d="M17.1601 23.583L16 27.3515C15.9261 27.8164 15.7186 28.0637 15.5011 28.1974C15.2836 28.331 15.0661 28.4646 14.7249 28.4945C14.4974 28.5144 14.3837 28.5243 14.26 28.4205C14.1463 28.4305 13.9089 28.3367 13.7852 28.2329L14.0767 27.6344C14.2003 27.7382 14.2003 27.7382 14.3141 27.7282C14.4278 27.7183 14.5515 27.8221 14.5515 27.8221C14.6652 27.8121 14.7789 27.8022 14.8827 27.6785C14.9865 27.5548 14.9765 27.4411 15.0803 27.3174L13.2934 23.9213L14.3169 23.8317L15.4357 26.1404L16.1366 23.6725L17.1601 23.583Z" fill="white"/>
<path d="M20.1964 24.234L22.1297 24.0648L22.1994 24.8609L20.266 25.03L20.4053 26.6222L19.3818 26.7117L18.9838 22.1627L22.1681 21.8841L22.2378 22.6802L20.077 22.8693L20.1964 24.234Z" fill="white"/>
<path d="M25.7947 25.3486L23.8614 25.5178L23.5998 26.4574L22.5763 26.547L24.1116 21.8288L25.1352 21.7392L27.4665 26.1191L26.4429 26.2087L25.7947 25.3486ZM25.4976 24.5724L24.666 22.9262L24.1329 24.6918L25.4976 24.5724Z" fill="white"/>
<path d="M31.1725 21.3257L29.7509 26.0339L28.7274 26.1234L26.5098 21.7336L27.5333 21.6441L29.0629 24.7189L30.149 21.4152L31.1725 21.3257Z" fill="white"/>
<path d="M32.5742 25.5577C32.2132 25.3601 31.8521 25.1624 31.7085 24.8312C31.4512 24.5099 31.2977 24.065 31.2678 23.7238C31.228 23.2689 31.3119 22.9178 31.5095 22.5567C31.7071 22.1956 31.9047 21.8346 32.236 21.691C32.5572 21.4337 33.0022 21.2802 33.4571 21.2404C33.912 21.2006 34.2631 21.2844 34.7379 21.4721C35.099 21.6697 35.4601 21.8673 35.6036 22.1985C35.8609 22.5198 36.0145 22.9648 36.0443 23.3059C36.0841 23.7608 36.0002 24.112 35.8026 24.473C35.605 24.8341 35.4074 25.1952 35.0762 25.3388C34.7549 25.5961 34.31 25.7496 33.8551 25.7894C33.4002 25.8292 32.9254 25.6415 32.5742 25.5577ZM34.4379 24.5924C34.6554 24.4588 34.7493 24.2214 34.853 24.0977C34.9469 23.8603 35.0407 23.6229 35.0108 23.2818C34.9909 23.0543 34.8474 22.7231 34.7137 22.5056C34.5801 22.2881 34.4564 22.1843 34.219 22.0905C33.9816 21.9966 33.7442 21.9028 33.5168 21.9227C33.2893 21.9426 33.0718 22.0762 32.8543 22.2099C32.6368 22.3435 32.543 22.5809 32.4392 22.7046C32.3454 22.942 32.2516 23.1794 32.2814 23.5205C32.3013 23.748 32.4449 24.0792 32.5785 24.2967C32.7121 24.5142 32.8358 24.618 33.0732 24.7118C33.3106 24.8057 33.5381 24.7858 33.7655 24.7659C33.993 24.746 34.2204 24.7261 34.4379 24.5924Z" fill="white"/>
<path d="M39.5314 25.1781L38.6258 23.9968L37.716 24.0764L37.8255 25.3274L36.8019 25.4169L36.404 20.8679L38.2236 20.7087C38.5647 20.6789 38.9159 20.7627 39.267 20.8466C39.5044 20.9405 39.7517 21.148 39.9991 21.3556C40.1327 21.5731 40.2763 21.9043 40.3061 22.2455C40.336 22.5866 40.2422 22.824 40.1583 23.1752C40.0645 23.4126 39.8569 23.6599 39.5257 23.8035L40.5648 25.2023L39.5413 25.2919L39.5314 25.1781ZM38.9955 21.6726C38.8718 21.5688 38.6344 21.475 38.2932 21.5048L37.4971 21.5744L37.6364 23.1666L38.4325 23.097C38.7737 23.0671 38.9912 22.9335 39.095 22.8098C39.1987 22.6861 39.2926 22.4487 39.2727 22.2213C39.2528 21.9938 39.1191 21.7763 38.9955 21.6726Z" fill="white"/>
<path d="M40.8391 20.4799L41.8626 20.3903L42.2606 24.9393L41.2371 25.0289L40.8391 20.4799Z" fill="white"/>
<path d="M43.638 21.0372L42.2733 21.1566L42.2037 20.3605L45.9566 20.0322L46.0263 20.8283L44.6616 20.9477L44.98 24.5869L43.9564 24.6764L43.638 21.0372Z" fill="white"/>
<path d="M50.0281 23.3431L50.0977 24.1392L46.7997 24.4277L46.4017 19.8787L49.586 19.6001L49.6557 20.3962L47.3812 20.5952L47.4707 21.6187L49.404 21.4496L49.4737 22.2456L47.5404 22.4148L47.6399 23.552L50.0281 23.3431Z" fill="white"/>
<path d="M51.4966 23.1C51.6203 23.2038 51.6303 23.3175 51.6502 23.5449C51.6601 23.6587 51.6701 23.7724 51.6701 23.7724C51.68 23.8861 51.5762 24.0098 51.5862 24.1235L51.3246 25.0632L50.756 25.1129L50.8939 24.0695C50.7802 24.0794 50.6565 23.9757 50.6465 23.8619C50.5229 23.7582 50.5129 23.6444 50.503 23.5307C50.4831 23.3033 50.4731 23.1895 50.5769 23.0659C50.6807 22.9422 50.7944 22.9322 51.0219 22.9123C51.2493 22.8924 51.373 22.9962 51.4966 23.1Z" fill="white"/>
<path d="M14.7263 31.13L15.7498 31.0405L16.0682 34.6797L18.229 34.4906L18.2987 35.2867L15.1143 35.5653L14.7263 31.13Z" fill="white"/>
<path d="M19.6534 35.0536C19.2923 34.856 18.9312 34.6584 18.7876 34.3272C18.5303 34.0059 18.3768 33.561 18.347 33.2198C18.3072 32.7649 18.391 32.4138 18.5886 32.0527C18.7862 31.6916 18.9838 31.3305 19.3151 31.187C19.6363 30.9297 20.0813 30.7761 20.5362 30.7363C20.9911 30.6965 21.3422 30.7804 21.817 30.9681C22.1781 31.1657 22.5392 31.3633 22.6827 31.6945C22.94 32.0158 23.0936 32.4607 23.1234 32.8019C23.1632 33.2568 23.0793 33.6079 22.8817 33.969C22.6841 34.3301 22.4865 34.6912 22.1553 34.8347C21.834 35.092 21.3891 35.2456 20.9342 35.2854C20.4793 35.3252 20.0144 35.2512 19.6534 35.0536ZM21.517 34.0884C21.7345 33.9548 21.8284 33.7174 21.9321 33.5937C22.026 33.3563 22.1198 33.1189 22.0899 32.7777C22.07 32.5503 21.9265 32.219 21.7928 32.0015C21.6592 31.784 21.5355 31.6803 21.2981 31.5864C21.0607 31.4926 20.8233 31.3988 20.5959 31.4187C20.3684 31.4386 20.1509 31.5722 19.9334 31.7058C19.7159 31.8395 19.6221 32.0769 19.5183 32.2005C19.4146 32.3242 19.3406 32.7891 19.3605 33.0165C19.3804 33.244 19.524 33.5752 19.6576 33.7927C19.7913 34.0102 19.9149 34.114 20.1523 34.2078C20.3897 34.3016 20.6271 34.3955 20.8546 34.3756C21.082 34.3557 21.2995 34.222 21.517 34.0884Z" fill="white"/>
<path d="M24.4724 31.194L23.1077 31.3134L23.0381 30.5174L26.791 30.189L26.8606 30.9851L25.4959 31.1045L25.8143 34.7437L24.7908 34.8333L24.4724 31.194Z" fill="white"/>
<path d="M28.5668 30.8359L27.2021 30.9553L27.1324 30.1592L30.8854 29.8309L30.955 30.627L29.5903 30.7464L29.9087 34.3856L28.8852 34.4751L28.5668 30.8359Z" fill="white"/>
<path d="M35.1401 33.9279L31.842 34.2164L31.444 29.6674L34.6284 29.3888L34.698 30.1849L32.4235 30.3839L32.513 31.4074L34.4464 31.2383L34.516 32.0343L32.5827 32.2035L32.6722 33.227L35.0605 33.0181L35.1401 33.9279Z" fill="white"/>
<path d="M38.6655 33.6195L37.76 32.4381L36.8502 32.5177L36.9597 33.7687L35.9361 33.8583L35.5382 29.3093L37.3578 29.1501C37.6989 29.1202 38.0501 29.2041 38.4012 29.288C38.6386 29.3818 38.8859 29.5893 39.1333 29.7969C39.2669 30.0144 39.4105 30.3456 39.4403 30.6868C39.4702 31.028 39.3764 31.2654 39.2925 31.6165C39.1987 31.8539 38.9911 32.1012 38.6599 32.2448L39.699 33.6437L38.6755 33.7332L38.6655 33.6195ZM38.1396 30.2276C38.0159 30.1238 37.7785 30.03 37.4374 30.0599L36.6413 30.1295L36.7806 31.7217L37.5767 31.652C37.9178 31.6222 38.1353 31.4885 38.2391 31.3649C38.3429 31.2412 38.4367 31.0038 38.4168 30.7763C38.3969 30.5489 38.2633 30.3314 38.1396 30.2276Z" fill="white"/>
<path d="M39.9733 28.9212L40.9968 28.8317L41.3948 33.3807L40.3713 33.4702L39.9733 28.9212Z" fill="white"/>
<path d="M45.1718 32.0189L43.2385 32.188L42.9769 33.1277L41.9534 33.2172L43.4887 28.4991L44.5123 28.4095L46.8436 32.7894L45.82 32.8789L45.1718 32.0189ZM44.7709 31.3664L43.9294 29.6065L43.3963 31.372L44.761 31.2526L44.7709 31.3664Z" fill="white"/>
</svg>
