<svg width="60" height="60" viewBox="0 0 60 60" fill="none" xmlns="http://www.w3.org/2000/svg">
<path d="M51.1428 53.5111L8.61713 53.8044L8.81265 25.5518L51.045 25.6495L51.1428 53.5111Z" fill="#FFD8C3"/>
<path d="M45.9615 7.85742H36.772V16.4603H45.9615V7.85742Z" fill="#7BD8D3"/>
<path d="M35.7944 6C35.2079 6 34.8168 6.39104 34.8168 6.9776V17.4379C34.8168 17.9267 35.3056 15.4827 35.7944 15.4827H47.0368C47.6234 15.4827 48.0144 18.0245 48.0144 17.4379V6.9776C48.0144 6.4888 47.5256 6 47.0368 6H35.7944ZM45.9615 16.4603H36.772V7.85744H45.9615V16.4603Z" fill="#566066"/>
<path d="M34.3281 7.85742H25.1386V16.4603H34.3281V7.85742Z" fill="#7BD8D3"/>
<path d="M24.0632 6C23.4767 6 23.0856 6.39104 23.0856 6.9776V17.4379C23.0856 17.9267 23.5744 15.4827 24.0632 15.4827H35.3056C35.8922 15.4827 36.2832 18.0245 36.2832 17.4379V6.9776C36.2832 6.4888 35.7944 6 35.3056 6H24.0632ZM34.328 16.4603H25.1386V7.85744H34.328V16.4603Z" fill="#566066"/>
<path d="M12.4297 6C11.8432 6 11.4521 6.39104 11.4521 6.9776V17.4379C11.4521 17.9267 11.9409 15.4827 12.4297 15.4827H23.6722C24.2587 15.4827 24.6498 18.0245 24.6498 17.4379V6.9776C24.6498 6.4888 24.161 6 23.6722 6H12.4297ZM22.6946 16.4603H13.5051V7.85744H22.6946V16.4603Z" fill="#566066"/>
<path d="M46.5481 7.56396H12.9186V16.6557H46.5481V7.56396Z" fill="#FF7E97"/>
<path d="M40.2914 9.03125H39.2161V12.5506H40.2914V9.03125Z" fill="white"/>
<path d="M43.8108 9.42219C43.8108 9.32443 43.7131 9.22667 43.6153 9.22667C43.5176 9.12891 43.5176 9.12891 43.4198 9.12891H43.322H42.6377H42.54C42.4422 9.12891 42.4422 9.22667 42.3444 9.22667C42.2467 9.32443 42.2467 9.32443 42.1489 9.42219L40.7803 12.5505H41.3668L41.7579 11.5729H43.6153L44.0064 12.5505H45.0817L43.8108 9.42219ZM42.0512 11.0841L42.7355 9.42219L43.4198 11.0841H42.0512Z" fill="white"/>
<path d="M38.043 11.4753C37.8474 11.182 37.7497 10.8887 37.3586 10.8887C37.8474 10.7909 38.1407 10.4977 38.1407 10.0089C38.1407 9.42229 37.7497 9.03125 36.7721 9.03125H35.1102C34.9146 9.03125 34.7191 9.22677 34.7191 9.42229V12.4529H35.6967V10.9865H36.0878C36.4788 10.9865 36.6743 11.182 36.8698 11.4753L37.3586 12.4529H38.434L38.043 11.4753ZM36.4788 10.5954H35.6967V9.61781C35.6967 9.52005 35.7945 9.42229 35.8922 9.42229H36.4788C36.8698 9.42229 37.0654 9.71557 37.0654 10.0089C37.0654 10.3021 36.8698 10.5954 36.4788 10.5954Z" fill="white"/>
<path d="M19.664 8.83545C18.2954 8.83545 17.5133 9.71529 17.5133 10.6929C17.5133 11.7683 18.2954 12.5503 19.664 12.5503C21.0327 12.5503 21.8148 11.6705 21.8148 10.6929C21.8148 9.71529 21.0327 8.83545 19.664 8.83545ZM19.664 12.2571C18.9797 12.2571 18.4909 11.5727 18.4909 10.7907C18.4909 10.0086 18.9797 9.32425 19.664 9.32425C20.3483 9.32425 20.8371 10.0086 20.8371 10.7907C20.8371 11.5727 20.3483 12.2571 19.664 12.2571Z" fill="white"/>
<path d="M22.0103 9.42229H23.4767V12.4529H24.5521V9.42229H25.823V9.03125H22.0103V9.42229Z" fill="white"/>
<path d="M26.2141 9.42229H27.3872V12.4529H28.4625V9.42229H29.9289V9.03125H26.2141V9.42229Z" fill="white"/>
<path d="M15.2649 11.8663V9.03125H14.2873V12.0618C14.2873 12.2573 14.4828 12.4529 14.6783 12.4529H17.3179V12.0618H15.4604C15.3627 12.0618 15.2649 11.9641 15.2649 11.8663Z" fill="white"/>
<path d="M30.5154 9.42229V12.0618C30.5154 12.2573 30.711 12.4529 30.9065 12.4529H33.7415V12.0618H31.6886C31.5908 12.0618 31.493 11.9641 31.493 11.8663V10.8887H33.6438V10.3999H31.493V9.61781C31.493 9.52005 31.5908 9.42229 31.6886 9.42229H33.7415V9.03125H30.9065C30.711 9.03125 30.5154 9.22677 30.5154 9.42229Z" fill="white"/>
<path d="M54.2711 24.7698L47.6234 13.9185H11.941L5.09776 24.7698C5 24.9653 5 25.1609 5 25.3564V25.4541C5 27.8981 6.17312 29.8534 7.9328 31.1242V54.0001H51.9248V30.831C53.489 29.6578 54.4666 27.7026 54.4666 25.4541C54.4666 25.2586 54.3689 25.0631 54.2711 24.8676C54.3689 24.8676 54.2711 24.7698 54.2711 24.7698ZM46.6458 15.7759L52.1204 24.1833H42.5399L39.4116 15.7759H46.6458ZM30.9064 15.7759H37.0653L40.2914 24.1833H30.9064V15.7759V15.7759ZM40.3892 26.4317C39.9004 28.4847 38.1407 29.9511 35.7944 29.9511C33.5459 29.9511 31.6885 28.4847 31.1997 26.4317H40.3892ZM28.6579 15.7759V24.1833H18.6864L21.9125 15.7759H28.6579V15.7759ZM28.1691 26.4317C27.6803 28.4847 25.9207 29.9511 23.5744 29.9511C21.3259 29.9511 19.4685 28.4847 18.9797 26.4317H28.1691ZM12.9186 15.7759H19.5663L16.3402 24.1833H7.24848L12.9186 15.7759ZM6.85744 26.4317H15.9491C15.4603 28.4847 13.7006 29.9511 11.3544 29.9511C9.10592 29.9511 7.24848 28.4847 6.85744 26.4317ZM27.0938 52.6315H16.4379V41.5846C16.4379 38.7495 18.7842 36.4033 21.717 36.4033C24.6498 36.4033 26.996 38.7495 26.996 41.5846V52.6315H27.0938ZM50.4584 52.6315H29.3423V41.5846C29.3423 37.4786 25.9207 34.057 21.717 34.057C17.5133 34.057 14.0917 37.3809 14.0917 41.5846V52.5337H9.3992V32.0041C9.98577 32.1018 10.7678 32.1996 11.3544 32.1996C14.0917 32.1996 16.3402 30.831 17.5133 28.5825C18.6864 30.7332 20.9349 32.1996 23.6722 32.1996C26.4095 32.1996 28.6579 30.831 29.8311 28.5825C31.0042 30.7332 33.2527 32.1996 35.99 32.1996C39.216 32.1996 40.9757 30.831 42.1488 28.5825C43.322 30.7332 45.5704 32.1996 48.3077 32.1996C48.992 32.1996 49.9696 32.1018 50.654 31.9063V52.6315H50.4584ZM48.1122 29.9511C45.8637 29.9511 44.0063 28.4847 43.5175 26.4317H52.6092C52.2181 28.4847 50.4584 29.9511 48.1122 29.9511Z" fill="#566066"/>
<path d="M23.5744 29.9515C25.8229 29.9515 27.6803 28.4851 28.1691 26.4321H19.0775C19.5663 28.4851 21.3259 29.9515 23.5744 29.9515Z" fill="#FF7E97"/>
<path d="M35.8922 29.9515C38.1407 29.9515 39.9982 28.4851 40.487 26.4321H31.3953C31.7863 28.4851 33.6437 29.9515 35.8922 29.9515Z" fill="#FFEB8B"/>
<path d="M48.1121 29.9515C50.3606 29.9515 52.2181 28.4851 52.7069 26.4321H43.6152C44.104 28.4851 45.8637 29.9515 48.1121 29.9515Z" fill="#FF7E97"/>
<path d="M20.055 15.3853H12.9185L6.85742 24.4769H16.5357L20.055 15.3853Z" fill="#7BD8D3"/>
<path d="M29.049 24.4769V15.3853H21.8147L18.2953 24.4769H29.049Z" fill="#FFEB8B"/>
<path d="M37.1631 15.3853H30.4177V24.5747H40.6825L37.1631 15.3853Z" fill="#7BD8D3"/>
<path d="M52.8047 24.5743L46.7436 15.2871H38.7272L42.2466 24.5743H52.8047Z" fill="#FFEB8B"/>
<path d="M11.7454 30.8313C14.3849 30.8313 16.3401 28.8761 16.9267 26.041H6.46637C7.05293 28.8761 9.10589 30.8313 11.7454 30.8313Z" fill="#FFEB8B"/>
<path d="M23.77 30.8313C26.4095 30.8313 28.3647 28.8761 28.9513 26.041H18.5887C19.1752 28.8761 21.2282 30.8313 23.77 30.8313Z" fill="#7BD8D3"/>
<path d="M35.8922 30.8313C38.5317 30.8313 40.487 28.8761 41.0735 26.041H30.7109C31.1997 28.8761 33.2527 30.8313 35.8922 30.8313Z" fill="#FFEB8B"/>
<path d="M47.9167 30.8313C50.5562 30.8313 52.5114 28.8761 53.098 26.041H42.7354C43.322 28.8761 45.3749 30.8313 47.9167 30.8313Z" fill="#7BD8D3"/>
<path d="M34.8168 48.2324H44.8861C45.1794 48.2324 45.3749 48.0369 45.3749 47.7436V37.6743C45.3749 37.3811 45.1794 37.1855 44.8861 37.1855H34.8168C34.5235 37.1855 34.328 37.3811 34.328 37.6743V47.7436C34.328 48.0369 34.5235 48.2324 34.8168 48.2324Z" fill="#7BD8D3"/>
<path d="M21.8148 35.6211C18.491 35.6211 15.8514 38.2606 15.8514 41.78V52.7291H27.8759V41.6822C27.7782 38.2606 25.1387 35.6211 21.8148 35.6211Z" fill="#FF97A0"/>
<path d="M47.2323 36.4035V48.3302C47.2323 48.9168 46.7435 49.4056 46.157 49.4056H34.1325C33.5459 49.4056 33.0571 48.9168 33.0571 48.3302V36.4035C33.0571 35.8169 33.5459 35.3281 34.1325 35.3281H46.157C46.7435 35.3281 47.2323 35.8169 47.2323 36.4035Z" fill="#566066"/>
<path d="M45.6681 37.6743V47.0592C45.6681 47.548 45.2771 47.9391 44.7883 47.9391H35.3056C34.8168 47.9391 34.4257 47.548 34.4257 47.0592V37.6743C34.4257 37.1855 34.8168 36.7944 35.3056 36.7944H44.7883C45.2771 36.7944 45.6681 37.1855 45.6681 37.6743Z" fill="#7BD8D3"/>
</svg>
